<?xml version="1.0" encoding="utf-8" ?>
<svg baseProfile="full" height="1286" version="1.1" width="607" xmlns="http://www.w3.org/2000/svg" xmlns:ev="http://www.w3.org/2001/xml-events" xmlns:xlink="http://www.w3.org/1999/xlink"><defs /><rect fill="black" height="43.0" width="43.0" x="86.89285714285714" y="-0.758064516129032" /><rect fill="black" height="43.0" width="43.0" x="130.24999999999997" y="-0.758064516129032" /><rect fill="black" height="43.0" width="43.0" x="173.60714285714283" y="-0.758064516129032" /><rect fill="black" height="43.0" width="43.0" x="303.67857142857144" y="-0.758064516129032" /><rect fill="black" height="43.0" width="43.0" x="347.0357142857143" y="-0.758064516129032" /><rect fill="black" height="43.0" width="43.0" x="390.3928571428571" y="-0.758064516129032" /><rect fill="black" height="43.0" width="43.0" x="433.75" y="-0.758064516129032" /><rect fill="black" height="43.0" width="43.0" x="520.4642857142857" y="-0.758064516129032" /><rect fill="black" height="41.833333333333336" width="41.833333333333336" x="0.7619047619047592" y="41.30913978494624" /><rect fill="black" height="41.833333333333336" width="41.833333333333336" x="44.119047619047606" y="41.30913978494624" /><rect fill="black" height="41.833333333333336" width="41.833333333333336" x="87.47619047619047" y="41.30913978494624" /><rect fill="black" height="41.833333333333336" width="41.833333333333336" x="130.83333333333331" y="41.30913978494624" /><rect fill="black" height="41.833333333333336" width="41.833333333333336" x="304.26190476190476" y="41.30913978494624" /><rect fill="black" height="41.833333333333336" width="41.833333333333336" x="434.3333333333333" y="41.30913978494624" /><rect fill="black" height="41.833333333333336" width="41.833333333333336" x="477.69047619047615" y="41.30913978494624" /><rect fill="black" height="41.833333333333336" width="41.833333333333336" x="521.047619047619" y="41.30913978494624" /><rect fill="black" height="41.833333333333336" width="41.833333333333336" x="564.4047619047619" y="41.30913978494624" /><rect fill="black" height="40.666666666666664" width="40.666666666666664" x="1.345238095238095" y="83.37634408602152" /><rect fill="black" height="40.666666666666664" width="40.666666666666664" x="88.05952380952381" y="83.37634408602152" /><rect fill="black" height="40.666666666666664" width="40.666666666666664" x="218.13095238095235" y="83.37634408602152" /><rect fill="black" height="40.666666666666664" width="40.666666666666664" x="261.48809523809524" y="83.37634408602152" /><rect fill="black" height="40.666666666666664" width="40.666666666666664" x="304.84523809523813" y="83.37634408602152" /><rect fill="black" height="40.666666666666664" width="40.666666666666664" x="348.20238095238096" y="83.37634408602152" /><rect fill="black" height="40.666666666666664" width="40.666666666666664" x="391.5595238095238" y="83.37634408602152" /><rect fill="black" height="40.666666666666664" width="40.666666666666664" x="434.9166666666667" y="83.37634408602152" /><rect fill="black" height="40.666666666666664" width="40.666666666666664" x="478.2738095238095" y="83.37634408602152" /><rect fill="black" height="40.666666666666664" width="40.666666666666664" x="521.6309523809523" y="83.37634408602152" /><rect fill="black" height="40.666666666666664" width="40.666666666666664" x="564.9880952380952" y="83.37634408602152" /><rect fill="black" height="39.5" width="39.5" x="1.928571428571427" y="125.44354838709677" /><rect fill="black" height="39.5" width="39.5" x="88.64285714285714" y="125.44354838709677" /><rect fill="black" height="39.5" width="39.5" x="131.99999999999997" y="125.44354838709677" /><rect fill="black" height="39.5" width="39.5" x="175.35714285714283" y="125.44354838709677" /><rect fill="black" height="39.5" width="39.5" x="218.7142857142857" y="125.44354838709677" /><rect fill="black" height="39.5" width="39.5" x="262.07142857142856" y="125.44354838709677" /><rect fill="black" height="39.5" width="39.5" x="305.42857142857144" y="125.44354838709677" /><rect fill="black" height="39.5" width="39.5" x="392.1428571428571" y="125.44354838709677" /><rect fill="black" height="39.5" width="39.5" x="478.85714285714283" y="125.44354838709677" /><rect fill="black" height="39.5" width="39.5" x="522.2142857142857" y="125.44354838709677" /><rect fill="black" height="39.5" width="39.5" x="565.5714285714286" y="125.44354838709677" /><rect fill="black" height="38.333333333333336" width="38.333333333333336" x="2.511904761904759" y="167.51075268817206" /><rect fill="black" height="38.333333333333336" width="38.333333333333336" x="45.869047619047606" y="167.51075268817206" /><rect fill="black" height="38.333333333333336" width="38.333333333333336" x="132.58333333333331" y="167.51075268817206" /><rect fill="black" height="38.333333333333336" width="38.333333333333336" x="175.94047619047618" y="167.51075268817206" /><rect fill="black" height="38.333333333333336" width="38.333333333333336" x="219.29761904761904" y="167.51075268817206" /><rect fill="black" height="38.333333333333336" width="38.333333333333336" x="306.01190476190476" y="167.51075268817206" /><rect fill="black" height="38.333333333333336" width="38.333333333333336" x="349.3690476190476" y="167.51075268817206" /><rect fill="black" height="38.333333333333336" width="38.333333333333336" x="392.7261904761904" y="167.51075268817206" /><rect fill="black" height="38.333333333333336" width="38.333333333333336" x="479.44047619047615" y="167.51075268817206" /><rect fill="black" height="38.333333333333336" width="38.333333333333336" x="522.797619047619" y="167.51075268817206" /><rect fill="black" height="38.333333333333336" width="38.333333333333336" x="566.1547619047619" y="167.51075268817206" /><rect fill="black" height="37.16666666666667" width="37.16666666666667" x="3.0952380952380913" y="209.57795698924733" /><rect fill="black" height="37.16666666666667" width="37.16666666666667" x="46.45238095238094" y="209.57795698924733" /><rect fill="black" height="37.16666666666667" width="37.16666666666667" x="89.8095238095238" y="209.57795698924733" /><rect fill="black" height="37.16666666666667" width="37.16666666666667" x="133.16666666666663" y="209.57795698924733" /><rect fill="black" height="37.16666666666667" width="37.16666666666667" x="176.5238095238095" y="209.57795698924733" /><rect fill="black" height="37.16666666666667" width="37.16666666666667" x="219.88095238095235" y="209.57795698924733" /><rect fill="black" height="37.16666666666667" width="37.16666666666667" x="263.23809523809524" y="209.57795698924733" /><rect fill="black" height="37.16666666666667" width="37.16666666666667" x="306.59523809523813" y="209.57795698924733" /><rect fill="black" height="37.16666666666667" width="37.16666666666667" x="349.95238095238096" y="209.57795698924733" /><rect fill="black" height="37.16666666666667" width="37.16666666666667" x="393.3095238095238" y="209.57795698924733" /><rect fill="black" height="37.16666666666667" width="37.16666666666667" x="436.6666666666667" y="209.57795698924733" /><rect fill="black" height="37.16666666666667" width="37.16666666666667" x="480.0238095238095" y="209.57795698924733" /><rect fill="black" height="37.16666666666667" width="37.16666666666667" x="566.7380952380952" y="209.57795698924733" /><rect fill="black" height="36.0" width="36.0" x="47.03571428571428" y="251.64516129032256" /><rect fill="black" height="36.0" width="36.0" x="90.39285714285714" y="251.64516129032256" /><rect fill="black" height="36.0" width="36.0" x="133.74999999999997" y="251.64516129032256" /><rect fill="black" height="36.0" width="36.0" x="177.10714285714283" y="251.64516129032256" /><rect fill="black" height="36.0" width="36.0" x="220.4642857142857" y="251.64516129032256" /><rect fill="black" height="36.0" width="36.0" x="350.5357142857143" y="251.64516129032256" /><rect fill="black" height="36.0" width="36.0" x="393.8928571428571" y="251.64516129032256" /><rect fill="black" height="36.0" width="36.0" x="480.60714285714283" y="251.64516129032256" /><rect fill="black" height="34.83333333333333" width="34.83333333333333" x="4.261904761904763" y="293.7123655913978" /><rect fill="black" height="34.83333333333333" width="34.83333333333333" x="90.97619047619048" y="293.7123655913978" /><rect fill="black" height="34.83333333333333" width="34.83333333333333" x="134.33333333333331" y="293.7123655913978" /><rect fill="black" height="34.83333333333333" width="34.83333333333333" x="177.69047619047618" y="293.7123655913978" /><rect fill="black" height="34.83333333333333" width="34.83333333333333" x="264.40476190476187" y="293.7123655913978" /><rect fill="black" height="34.83333333333333" width="34.83333333333333" x="307.76190476190476" y="293.7123655913978" /><rect fill="black" height="34.83333333333333" width="34.83333333333333" x="351.1190476190476" y="293.7123655913978" /><rect fill="black" height="34.83333333333333" width="34.83333333333333" x="394.4761904761904" y="293.7123655913978" /><rect fill="black" height="34.83333333333333" width="34.83333333333333" x="437.8333333333333" y="293.7123655913978" /><rect fill="black" height="34.83333333333333" width="34.83333333333333" x="481.19047619047615" y="293.7123655913978" /><rect fill="black" height="34.83333333333333" width="34.83333333333333" x="524.547619047619" y="293.7123655913978" /><rect fill="black" height="34.83333333333333" width="34.83333333333333" x="567.9047619047619" y="293.7123655913978" /><rect fill="black" height="33.66666666666667" width="33.66666666666667" x="4.845238095238091" y="335.77956989247315" /><rect fill="black" height="33.66666666666667" width="33.66666666666667" x="48.20238095238094" y="335.77956989247315" /><rect fill="black" height="33.66666666666667" width="33.66666666666667" x="91.5595238095238" y="335.77956989247315" /><rect fill="black" height="33.66666666666667" width="33.66666666666667" x="178.2738095238095" y="335.77956989247315" /><rect fill="black" height="33.66666666666667" width="33.66666666666667" x="264.98809523809524" y="335.77956989247315" /><rect fill="black" height="33.66666666666667" width="33.66666666666667" x="308.34523809523813" y="335.77956989247315" /><rect fill="black" height="33.66666666666667" width="33.66666666666667" x="351.70238095238096" y="335.77956989247315" /><rect fill="black" height="33.66666666666667" width="33.66666666666667" x="395.0595238095238" y="335.77956989247315" /><rect fill="black" height="33.66666666666667" width="33.66666666666667" x="438.4166666666667" y="335.77956989247315" /><rect fill="black" height="33.66666666666667" width="33.66666666666667" x="525.1309523809523" y="335.77956989247315" /><rect fill="black" height="33.66666666666667" width="33.66666666666667" x="568.4880952380952" y="335.77956989247315" /><rect fill="black" height="32.5" width="32.5" x="48.78571428571428" y="377.8467741935484" /><rect fill="black" height="32.5" width="32.5" x="92.14285714285714" y="377.8467741935484" /><rect fill="black" height="32.5" width="32.5" x="135.49999999999997" y="377.8467741935484" /><rect fill="black" height="32.5" width="32.5" x="178.85714285714283" y="377.8467741935484" /><rect fill="black" height="32.5" width="32.5" x="222.2142857142857" y="377.8467741935484" /><rect fill="black" height="32.5" width="32.5" x="265.57142857142856" y="377.8467741935484" /><rect fill="black" height="32.5" width="32.5" x="308.92857142857144" y="377.8467741935484" /><rect fill="black" height="32.5" width="32.5" x="395.6428571428571" y="377.8467741935484" /><rect fill="black" height="32.5" width="32.5" x="439.0" y="377.8467741935484" /><rect fill="black" height="32.5" width="32.5" x="482.35714285714283" y="377.8467741935484" /><rect fill="black" height="32.5" width="32.5" x="525.7142857142857" y="377.8467741935484" /><rect fill="black" height="32.5" width="32.5" x="569.0714285714286" y="377.8467741935484" /><rect fill="black" height="31.333333333333336" width="31.333333333333336" x="6.011904761904759" y="419.9139784946237" /><rect fill="black" height="31.333333333333336" width="31.333333333333336" x="49.369047619047606" y="419.9139784946237" /><rect fill="black" height="31.333333333333336" width="31.333333333333336" x="136.08333333333331" y="419.9139784946237" /><rect fill="black" height="31.333333333333336" width="31.333333333333336" x="222.79761904761904" y="419.9139784946237" /><rect fill="black" height="31.333333333333336" width="31.333333333333336" x="266.15476190476187" y="419.9139784946237" /><rect fill="black" height="31.333333333333336" width="31.333333333333336" x="309.51190476190476" y="419.9139784946237" /><rect fill="black" height="31.333333333333336" width="31.333333333333336" x="352.8690476190476" y="419.9139784946237" /><rect fill="black" height="31.333333333333336" width="31.333333333333336" x="396.2261904761904" y="419.9139784946237" /><rect fill="black" height="31.333333333333336" width="31.333333333333336" x="439.5833333333333" y="419.9139784946237" /><rect fill="black" height="31.333333333333336" width="31.333333333333336" x="482.94047619047615" y="419.9139784946237" /><rect fill="black" height="31.333333333333336" width="31.333333333333336" x="526.297619047619" y="419.9139784946237" /><rect fill="black" height="31.333333333333336" width="31.333333333333336" x="569.6547619047619" y="419.9139784946237" /><rect fill="black" height="30.166666666666664" width="30.166666666666664" x="136.66666666666663" y="461.98118279569894" /><rect fill="black" height="30.166666666666664" width="30.166666666666664" x="180.0238095238095" y="461.98118279569894" /><rect fill="black" height="30.166666666666664" width="30.166666666666664" x="266.73809523809524" y="461.98118279569894" /><rect fill="black" height="30.166666666666664" width="30.166666666666664" x="310.09523809523813" y="461.98118279569894" /><rect fill="black" height="30.166666666666664" width="30.166666666666664" x="353.45238095238096" y="461.98118279569894" /><rect fill="black" height="30.166666666666664" width="30.166666666666664" x="396.8095238095238" y="461.98118279569894" /><rect fill="black" height="30.166666666666664" width="30.166666666666664" x="440.1666666666667" y="461.98118279569894" /><rect fill="black" height="30.166666666666664" width="30.166666666666664" x="526.8809523809523" y="461.98118279569894" /><rect fill="black" height="30.166666666666664" width="30.166666666666664" x="570.2380952380952" y="461.98118279569894" /><rect fill="black" height="29.0" width="29.0" x="50.53571428571428" y="504.04838709677415" /><rect fill="black" height="29.0" width="29.0" x="93.89285714285714" y="504.04838709677415" /><rect fill="black" height="29.0" width="29.0" x="137.24999999999997" y="504.04838709677415" /><rect fill="black" height="29.0" width="29.0" x="180.60714285714283" y="504.04838709677415" /><rect fill="black" height="29.0" width="29.0" x="397.3928571428571" y="504.04838709677415" /><rect fill="black" height="29.0" width="29.0" x="484.10714285714283" y="504.04838709677415" /><rect fill="black" height="29.0" width="29.0" x="570.8214285714286" y="504.04838709677415" /><rect fill="black" height="27.833333333333332" width="27.833333333333332" x="7.761904761904761" y="546.1155913978495" /><rect fill="black" height="27.833333333333332" width="27.833333333333332" x="51.11904761904761" y="546.1155913978495" /><rect fill="black" height="27.833333333333332" width="27.833333333333332" x="94.47619047619047" y="546.1155913978495" /><rect fill="black" height="27.833333333333332" width="27.833333333333332" x="181.19047619047618" y="546.1155913978495" /><rect fill="black" height="27.833333333333332" width="27.833333333333332" x="224.54761904761904" y="546.1155913978495" /><rect fill="black" height="27.833333333333332" width="27.833333333333332" x="311.26190476190476" y="546.1155913978495" /><rect fill="black" height="27.833333333333332" width="27.833333333333332" x="484.69047619047615" y="546.1155913978495" /><rect fill="black" height="27.833333333333332" width="27.833333333333332" x="528.047619047619" y="546.1155913978495" /><rect fill="black" height="26.666666666666668" width="26.666666666666668" x="8.345238095238093" y="588.1827956989247" /><rect fill="black" height="26.666666666666668" width="26.666666666666668" x="51.70238095238094" y="588.1827956989247" /><rect fill="black" height="26.666666666666668" width="26.666666666666668" x="95.05952380952381" y="588.1827956989247" /><rect fill="black" height="26.666666666666668" width="26.666666666666668" x="138.41666666666663" y="588.1827956989247" /><rect fill="black" height="26.666666666666668" width="26.666666666666668" x="181.7738095238095" y="588.1827956989247" /><rect fill="black" height="26.666666666666668" width="26.666666666666668" x="225.13095238095235" y="588.1827956989247" /><rect fill="black" height="26.666666666666668" width="26.666666666666668" x="311.84523809523813" y="588.1827956989247" /><rect fill="black" height="26.666666666666668" width="26.666666666666668" x="398.5595238095238" y="588.1827956989247" /><rect fill="black" height="26.666666666666668" width="26.666666666666668" x="441.9166666666667" y="588.1827956989247" /><rect fill="black" height="26.666666666666668" width="26.666666666666668" x="571.9880952380952" y="588.1827956989247" /><rect fill="black" height="25.5" width="25.5" x="8.928571428571427" y="630.25" /><rect fill="black" height="25.5" width="25.5" x="95.64285714285714" y="630.25" /><rect fill="black" height="25.5" width="25.5" x="138.99999999999997" y="630.25" /><rect fill="black" height="25.5" width="25.5" x="182.35714285714283" y="630.25" /><rect fill="black" height="25.5" width="25.5" x="225.7142857142857" y="630.25" /><rect fill="black" height="25.5" width="25.5" x="312.42857142857144" y="630.25" /><rect fill="black" height="25.5" width="25.5" x="355.7857142857143" y="630.25" /><rect fill="black" height="25.5" width="25.5" x="399.1428571428571" y="630.25" /><rect fill="black" height="25.5" width="25.5" x="442.5" y="630.25" /><rect fill="black" height="25.5" width="25.5" x="485.85714285714283" y="630.25" /><rect fill="black" height="25.5" width="25.5" x="529.2142857142857" y="630.25" /><rect fill="black" height="25.5" width="25.5" x="572.5714285714286" y="630.25" /><rect fill="black" height="24.333333333333332" width="24.333333333333332" x="96.22619047619047" y="672.3172043010753" /><rect fill="black" height="24.333333333333332" width="24.333333333333332" x="139.58333333333331" y="672.3172043010753" /><rect fill="black" height="24.333333333333332" width="24.333333333333332" x="226.29761904761904" y="672.3172043010753" /><rect fill="black" height="24.333333333333332" width="24.333333333333332" x="313.01190476190476" y="672.3172043010753" /><rect fill="black" height="24.333333333333332" width="24.333333333333332" x="529.797619047619" y="672.3172043010753" /><rect fill="black" height="24.333333333333332" width="24.333333333333332" x="573.1547619047619" y="672.3172043010753" /><rect fill="black" height="23.166666666666668" width="23.166666666666668" x="10.095238095238093" y="714.3844086021505" /><rect fill="black" height="23.166666666666668" width="23.166666666666668" x="53.45238095238094" y="714.3844086021505" /><rect fill="black" height="23.166666666666668" width="23.166666666666668" x="96.80952380952381" y="714.3844086021505" /><rect fill="black" height="23.166666666666668" width="23.166666666666668" x="140.16666666666663" y="714.3844086021505" /><rect fill="black" height="23.166666666666668" width="23.166666666666668" x="183.5238095238095" y="714.3844086021505" /><rect fill="black" height="23.166666666666668" width="23.166666666666668" x="226.88095238095235" y="714.3844086021505" /><rect fill="black" height="23.166666666666668" width="23.166666666666668" x="270.23809523809524" y="714.3844086021505" /><rect fill="black" height="23.166666666666668" width="23.166666666666668" x="313.59523809523813" y="714.3844086021505" /><rect fill="black" height="23.166666666666668" width="23.166666666666668" x="356.95238095238096" y="714.3844086021505" /><rect fill="black" height="23.166666666666668" width="23.166666666666668" x="400.3095238095238" y="714.3844086021505" /><rect fill="black" height="23.166666666666668" width="23.166666666666668" x="443.6666666666667" y="714.3844086021505" /><rect fill="black" height="23.166666666666668" width="23.166666666666668" x="530.3809523809523" y="714.3844086021505" /><rect fill="black" height="23.166666666666668" width="23.166666666666668" x="573.7380952380952" y="714.3844086021505" /><rect fill="black" height="22.0" width="22.0" x="10.678571428571427" y="756.4516129032259" /><rect fill="black" height="22.0" width="22.0" x="54.03571428571428" y="756.4516129032259" /><rect fill="black" height="22.0" width="22.0" x="97.39285714285714" y="756.4516129032259" /><rect fill="black" height="22.0" width="22.0" x="184.10714285714283" y="756.4516129032259" /><rect fill="black" height="22.0" width="22.0" x="227.4642857142857" y="756.4516129032259" /><rect fill="black" height="22.0" width="22.0" x="270.82142857142856" y="756.4516129032259" /><rect fill="black" height="22.0" width="22.0" x="314.17857142857144" y="756.4516129032259" /><rect fill="black" height="22.0" width="22.0" x="400.8928571428571" y="756.4516129032259" /><rect fill="black" height="22.0" width="22.0" x="444.25" y="756.4516129032259" /><rect fill="black" height="22.0" width="22.0" x="530.9642857142857" y="756.4516129032259" /><rect fill="black" height="22.0" width="22.0" x="574.3214285714286" y="756.4516129032259" /><rect fill="black" height="20.833333333333336" width="20.833333333333336" x="54.619047619047606" y="798.5188172043012" /><rect fill="black" height="20.833333333333336" width="20.833333333333336" x="141.33333333333331" y="798.5188172043012" /><rect fill="black" height="20.833333333333336" width="20.833333333333336" x="184.69047619047618" y="798.5188172043012" /><rect fill="black" height="20.833333333333336" width="20.833333333333336" x="228.04761904761904" y="798.5188172043012" /><rect fill="black" height="20.833333333333336" width="20.833333333333336" x="271.40476190476187" y="798.5188172043012" /><rect fill="black" height="20.833333333333336" width="20.833333333333336" x="358.1190476190476" y="798.5188172043012" /><rect fill="black" height="20.833333333333336" width="20.833333333333336" x="401.4761904761904" y="798.5188172043012" /><rect fill="black" height="20.833333333333336" width="20.833333333333336" x="444.8333333333333" y="798.5188172043012" /><rect fill="black" height="20.833333333333336" width="20.833333333333336" x="488.19047619047615" y="798.5188172043012" /><rect fill="black" height="20.833333333333336" width="20.833333333333336" x="574.9047619047619" y="798.5188172043012" /><rect fill="black" height="19.666666666666668" width="19.666666666666668" x="11.845238095238093" y="840.5860215053764" /><rect fill="black" height="19.666666666666668" width="19.666666666666668" x="98.55952380952381" y="840.5860215053764" /><rect fill="black" height="19.666666666666668" width="19.666666666666668" x="141.91666666666663" y="840.5860215053764" /><rect fill="black" height="19.666666666666668" width="19.666666666666668" x="185.2738095238095" y="840.5860215053764" /><rect fill="black" height="19.666666666666668" width="19.666666666666668" x="228.63095238095235" y="840.5860215053764" /><rect fill="black" height="19.666666666666668" width="19.666666666666668" x="271.98809523809524" y="840.5860215053764" /><rect fill="black" height="19.666666666666668" width="19.666666666666668" x="315.34523809523813" y="840.5860215053764" /><rect fill="black" height="19.666666666666668" width="19.666666666666668" x="358.70238095238096" y="840.5860215053764" /><rect fill="black" height="19.666666666666668" width="19.666666666666668" x="402.0595238095238" y="840.5860215053764" /><rect fill="black" height="19.666666666666668" width="19.666666666666668" x="488.7738095238095" y="840.5860215053764" /><rect fill="black" height="19.666666666666668" width="19.666666666666668" x="575.4880952380952" y="840.5860215053764" /><rect fill="black" height="18.5" width="18.5" x="99.14285714285714" y="882.6532258064516" /><rect fill="black" height="18.5" width="18.5" x="142.49999999999997" y="882.6532258064516" /><rect fill="black" height="18.5" width="18.5" x="185.85714285714283" y="882.6532258064516" /><rect fill="black" height="18.5" width="18.5" x="272.57142857142856" y="882.6532258064516" /><rect fill="black" height="18.5" width="18.5" x="315.92857142857144" y="882.6532258064516" /><rect fill="black" height="18.5" width="18.5" x="359.2857142857143" y="882.6532258064516" /><rect fill="black" height="18.5" width="18.5" x="402.6428571428571" y="882.6532258064516" /><rect fill="black" height="18.5" width="18.5" x="446.0" y="882.6532258064516" /><rect fill="black" height="18.5" width="18.5" x="576.0714285714286" y="882.6532258064516" /><rect fill="black" height="17.333333333333336" width="17.333333333333336" x="13.01190476190476" y="924.7204301075269" /><rect fill="black" height="17.333333333333336" width="17.333333333333336" x="186.44047619047618" y="924.7204301075269" /><rect fill="black" height="17.333333333333336" width="17.333333333333336" x="273.15476190476187" y="924.7204301075269" /><rect fill="black" height="17.333333333333336" width="17.333333333333336" x="403.2261904761904" y="924.7204301075269" /><rect fill="black" height="17.333333333333336" width="17.333333333333336" x="533.297619047619" y="924.7204301075269" /><rect fill="black" height="16.166666666666664" width="16.166666666666664" x="13.595238095238095" y="966.7876344086021" /><rect fill="black" height="16.166666666666664" width="16.166666666666664" x="56.95238095238095" y="966.7876344086021" /><rect fill="black" height="16.166666666666664" width="16.166666666666664" x="100.30952380952381" y="966.7876344086021" /><rect fill="black" height="16.166666666666664" width="16.166666666666664" x="143.66666666666663" y="966.7876344086021" /><rect fill="black" height="16.166666666666664" width="16.166666666666664" x="187.0238095238095" y="966.7876344086021" /><rect fill="black" height="16.166666666666664" width="16.166666666666664" x="230.38095238095235" y="966.7876344086021" /><rect fill="black" height="16.166666666666664" width="16.166666666666664" x="317.09523809523813" y="966.7876344086021" /><rect fill="black" height="16.166666666666664" width="16.166666666666664" x="360.45238095238096" y="966.7876344086021" /><rect fill="black" height="16.166666666666664" width="16.166666666666664" x="403.8095238095238" y="966.7876344086021" /><rect fill="black" height="16.166666666666664" width="16.166666666666664" x="447.1666666666667" y="966.7876344086021" /><rect fill="black" height="16.166666666666664" width="16.166666666666664" x="490.5238095238095" y="966.7876344086021" /><rect fill="black" height="16.166666666666664" width="16.166666666666664" x="533.8809523809523" y="966.7876344086021" /><rect fill="black" height="14.999999999999998" width="14.999999999999998" x="14.178571428571427" y="1008.8548387096774" /><rect fill="black" height="14.999999999999998" width="14.999999999999998" x="100.89285714285714" y="1008.8548387096774" /><rect fill="black" height="14.999999999999998" width="14.999999999999998" x="144.24999999999997" y="1008.8548387096774" /><rect fill="black" height="14.999999999999998" width="14.999999999999998" x="187.60714285714283" y="1008.8548387096774" /><rect fill="black" height="14.999999999999998" width="14.999999999999998" x="230.9642857142857" y="1008.8548387096774" /><rect fill="black" height="14.999999999999998" width="14.999999999999998" x="274.32142857142856" y="1008.8548387096774" /><rect fill="black" height="14.999999999999998" width="14.999999999999998" x="361.0357142857143" y="1008.8548387096774" /><rect fill="black" height="14.999999999999998" width="14.999999999999998" x="404.3928571428571" y="1008.8548387096774" /><rect fill="black" height="14.999999999999998" width="14.999999999999998" x="447.75" y="1008.8548387096774" /><rect fill="black" height="14.999999999999998" width="14.999999999999998" x="491.10714285714283" y="1008.8548387096774" /><rect fill="black" height="14.999999999999998" width="14.999999999999998" x="577.8214285714286" y="1008.8548387096774" /><rect fill="black" height="13.833333333333332" width="13.833333333333332" x="101.47619047619047" y="1050.9220430107525" /><rect fill="black" height="13.833333333333332" width="13.833333333333332" x="188.19047619047618" y="1050.9220430107525" /><rect fill="black" height="13.833333333333332" width="13.833333333333332" x="231.54761904761904" y="1050.9220430107525" /><rect fill="black" height="13.833333333333332" width="13.833333333333332" x="274.90476190476187" y="1050.9220430107525" /><rect fill="black" height="13.833333333333332" width="13.833333333333332" x="318.26190476190476" y="1050.9220430107525" /><rect fill="black" height="13.833333333333332" width="13.833333333333332" x="361.6190476190476" y="1050.9220430107525" /><rect fill="black" height="13.833333333333332" width="13.833333333333332" x="404.9761904761904" y="1050.9220430107525" /><rect fill="black" height="13.833333333333332" width="13.833333333333332" x="448.3333333333333" y="1050.9220430107525" /><rect fill="black" height="13.833333333333332" width="13.833333333333332" x="491.69047619047615" y="1050.9220430107525" /><rect fill="black" height="13.833333333333332" width="13.833333333333332" x="535.047619047619" y="1050.9220430107525" /><rect fill="black" height="12.666666666666666" width="12.666666666666666" x="58.70238095238094" y="1092.989247311828" /><rect fill="black" height="12.666666666666666" width="12.666666666666666" x="102.05952380952381" y="1092.989247311828" /><rect fill="black" height="12.666666666666666" width="12.666666666666666" x="145.41666666666663" y="1092.989247311828" /><rect fill="black" height="12.666666666666666" width="12.666666666666666" x="188.7738095238095" y="1092.989247311828" /><rect fill="black" height="12.666666666666666" width="12.666666666666666" x="232.13095238095235" y="1092.989247311828" /><rect fill="black" height="12.666666666666666" width="12.666666666666666" x="275.48809523809524" y="1092.989247311828" /><rect fill="black" height="12.666666666666666" width="12.666666666666666" x="362.20238095238096" y="1092.989247311828" /><rect fill="black" height="12.666666666666666" width="12.666666666666666" x="405.5595238095238" y="1092.989247311828" /><rect fill="black" height="12.666666666666666" width="12.666666666666666" x="448.9166666666667" y="1092.989247311828" /><rect fill="black" height="12.666666666666666" width="12.666666666666666" x="535.6309523809523" y="1092.989247311828" /><rect fill="black" height="11.5" width="11.5" x="15.928571428571427" y="1135.0564516129032" /><rect fill="black" height="11.5" width="11.5" x="59.28571428571428" y="1135.0564516129032" /><rect fill="black" height="11.5" width="11.5" x="102.64285714285714" y="1135.0564516129032" /><rect fill="black" height="11.5" width="11.5" x="145.99999999999997" y="1135.0564516129032" /><rect fill="black" height="11.5" width="11.5" x="189.35714285714283" y="1135.0564516129032" /><rect fill="black" height="11.5" width="11.5" x="232.7142857142857" y="1135.0564516129032" /><rect fill="black" height="11.5" width="11.5" x="319.42857142857144" y="1135.0564516129032" /><rect fill="black" height="11.5" width="11.5" x="449.5" y="1135.0564516129032" /><rect fill="black" height="11.5" width="11.5" x="492.85714285714283" y="1135.0564516129032" /><rect fill="black" height="11.5" width="11.5" x="536.2142857142857" y="1135.0564516129032" /><rect fill="black" height="11.5" width="11.5" x="579.5714285714286" y="1135.0564516129032" /><rect fill="black" height="10.333333333333332" width="10.333333333333332" x="16.51190476190476" y="1177.1236559139784" /><rect fill="black" height="10.333333333333332" width="10.333333333333332" x="59.86904761904761" y="1177.1236559139784" /><rect fill="black" height="10.333333333333332" width="10.333333333333332" x="103.22619047619047" y="1177.1236559139784" /><rect fill="black" height="10.333333333333332" width="10.333333333333332" x="189.94047619047618" y="1177.1236559139784" /><rect fill="black" height="10.333333333333332" width="10.333333333333332" x="320.01190476190476" y="1177.1236559139784" /><rect fill="black" height="10.333333333333332" width="10.333333333333332" x="363.3690476190476" y="1177.1236559139784" /><rect fill="black" height="10.333333333333332" width="10.333333333333332" x="406.7261904761904" y="1177.1236559139784" /><rect fill="black" height="10.333333333333332" width="10.333333333333332" x="493.44047619047615" y="1177.1236559139784" /><rect fill="black" height="10.333333333333332" width="10.333333333333332" x="536.797619047619" y="1177.1236559139784" /><rect fill="black" height="9.166666666666666" width="9.166666666666666" x="17.095238095238095" y="1219.1908602150538" /><rect fill="black" height="9.166666666666666" width="9.166666666666666" x="190.5238095238095" y="1219.1908602150538" /><rect fill="black" height="9.166666666666666" width="9.166666666666666" x="233.88095238095235" y="1219.1908602150538" /><rect fill="black" height="9.166666666666666" width="9.166666666666666" x="277.23809523809524" y="1219.1908602150538" /><rect fill="black" height="9.166666666666666" width="9.166666666666666" x="320.59523809523813" y="1219.1908602150538" /><rect fill="black" height="9.166666666666666" width="9.166666666666666" x="407.3095238095238" y="1219.1908602150538" /><rect fill="black" height="9.166666666666666" width="9.166666666666666" x="450.6666666666667" y="1219.1908602150538" /><rect fill="black" height="9.166666666666666" width="9.166666666666666" x="580.7380952380952" y="1219.1908602150538" /><rect fill="black" height="8.0" width="8.0" x="17.678571428571427" y="1261.258064516129" /><rect fill="black" height="8.0" width="8.0" x="61.03571428571428" y="1261.258064516129" /><rect fill="black" height="8.0" width="8.0" x="104.39285714285714" y="1261.258064516129" /><rect fill="black" height="8.0" width="8.0" x="147.74999999999997" y="1261.258064516129" /><rect fill="black" height="8.0" width="8.0" x="191.10714285714283" y="1261.258064516129" /><rect fill="black" height="8.0" width="8.0" x="234.4642857142857" y="1261.258064516129" /><rect fill="black" height="8.0" width="8.0" x="277.82142857142856" y="1261.258064516129" /><rect fill="black" height="8.0" width="8.0" x="364.5357142857143" y="1261.258064516129" /><rect fill="black" height="8.0" width="8.0" x="407.8928571428571" y="1261.258064516129" /><rect fill="black" height="8.0" width="8.0" x="451.25" y="1261.258064516129" /><rect fill="black" height="8.0" width="8.0" x="494.60714285714283" y="1261.258064516129" /><rect fill="black" height="8.0" width="8.0" x="581.3214285714286" y="1261.258064516129" /></svg>